<?xml version="1.0" standalone="no"?>
<!DOCTYPE svg PUBLIC "-//W3C//DTD SVG 20010904//EN"
 "http://www.w3.org/TR/2001/REC-SVG-20010904/DTD/svg10.dtd">
<svg version="1.0" xmlns="http://www.w3.org/2000/svg"
 width="200" height="200" viewBox="0 0 1600 1600"
 preserveAspectRatio="xMidYMid meet">

<g transform="translate(0,1600) scale(0.1,-0.1)"
fill="#000000" stroke="none">
<path d="M6812 13080 c-12 -12 -23 -22 -24 -23 -2 -1 -5 -605 -8 -1342 l-5
-1339 -25 -13 c-27 -14 -311 -149 -615 -293 -49 -23 -164 -78 -254 -121 -90
-44 -165 -79 -166 -79 -2 0 -73 -34 -157 -76 -84 -41 -342 -166 -573 -276
-231 -110 -428 -207 -437 -215 -17 -15 -18 -73 -18 -945 l0 -928 -610 0 c-444
0 -616 -3 -635 -12 -45 -20 -50 -88 -9 -126 l25 -22 663 0 c639 0 665 1 687
19 l24 19 5 947 5 946 210 100 c116 56 275 132 354 170 79 38 145 69 147 69 6
0 276 127 478 224 98 47 179 86 181 86 1 0 96 45 210 100 113 55 208 100 210
100 2 0 68 31 147 70 78 38 146 70 151 70 4 0 7 -513 7 -1140 l0 -1141 25 -24
24 -25 996 0 995 0 0 -283 c0 -283 0 -284 23 -305 l23 -22 1923 0 1922 0 24
25 c32 31 32 66 1 102 l-24 28 -1439 0 c-791 0 -1630 1 -1865 3 l-428 2 0 225
0 225 939 0 940 0 28 24 28 24 3 854 c2 570 0 865 -7 889 -10 34 -50 60 -833
549 -453 283 -897 560 -987 617 -179 112 -210 122 -249 80 l-22 -23 0 -1427 0
-1427 -937 2 -938 3 -3 1105 c-1 608 0 1114 3 1126 3 14 28 31 77 54 40 19
143 67 228 108 85 41 229 109 320 152 222 105 392 186 655 315 121 59 288 139
370 177 241 113 323 156 335 177 7 13 10 314 10 916 l0 896 -25 24 -24 25
-1029 0 c-1021 0 -1028 0 -1050 -20z m1968 -948 l0 -808 -102 -49 c-57 -27
-182 -87 -278 -133 -198 -95 -257 -122 -263 -122 -3 0 -74 -33 -159 -74 -84
-40 -247 -119 -363 -174 -115 -55 -264 -126 -330 -157 -234 -112 -327 -155
-336 -155 -5 0 -9 516 -9 1240 l0 1240 920 0 920 0 0 -808z m585 -1670 c171
-107 382 -239 470 -293 88 -54 331 -206 540 -336 l380 -238 3 -787 2 -788
-890 0 -890 0 -2 1313 c-2 721 -2 1325 0 1340 l3 28 37 -23 c20 -12 177 -110
347 -216z"/>
<path d="M4865 6040 c-239 -38 -413 -167 -486 -358 -40 -109 -51 -187 -46
-327 7 -149 24 -221 75 -320 74 -142 209 -237 382 -271 139 -27 439 -3 563 45
l27 11 -2 302 -3 303 -212 3 -213 2 0 -65 0 -65 140 0 140 0 0 -195 c0 -223
14 -196 -110 -215 -149 -23 -312 -5 -411 46 -102 51 -182 165 -210 299 -18 87
-15 257 5 334 46 177 167 297 336 332 90 19 270 7 365 -24 44 -15 85 -27 90
-27 10 0 62 117 54 123 -2 2 -22 11 -45 20 -106 41 -325 64 -439 47z"/>
<path d="M7892 6040 c-129 -24 -233 -79 -307 -163 -116 -133 -172 -357 -145
-584 36 -302 179 -477 432 -528 329 -65 597 84 690 385 21 67 23 94 22 255 0
168 -2 186 -27 261 -61 182 -184 306 -357 358 -66 20 -235 29 -308 16z m208
-131 c88 -14 140 -39 200 -95 95 -89 134 -210 134 -414 0 -181 -32 -299 -104
-390 -136 -172 -494 -172 -630 0 -71 90 -110 223 -110 383 0 182 42 317 126
407 91 97 225 135 384 109z"/>
<path d="M6047 6023 c-4 -3 -7 -287 -7 -630 l0 -623 75 0 75 0 0 260 0 260
133 0 132 0 150 -260 150 -259 87 -1 88 0 -43 73 c-24 39 -101 166 -171 281
-69 115 -125 209 -124 210 47 18 128 68 157 98 69 69 86 116 86 244 0 103 -2
114 -30 169 -51 101 -144 155 -295 175 -85 11 -453 14 -463 3z m524 -155 c82
-37 119 -101 119 -203 0 -74 -25 -138 -70 -179 -58 -52 -118 -66 -287 -66
l-143 0 0 241 0 241 163 -4 c148 -3 167 -6 218 -30z"/>
<path d="M9230 5583 c0 -484 2 -509 54 -612 76 -149 251 -232 460 -218 202 14
334 95 409 255 l32 67 3 478 3 477 -70 0 -71 0 0 -422 c0 -467 -6 -529 -58
-603 -61 -89 -177 -133 -315 -122 -39 3 -89 11 -109 17 -57 17 -120 70 -153
130 l-30 55 -5 470 -5 470 -72 3 -73 3 0 -448z"/>
<path d="M10890 5401 l0 -631 75 0 75 0 0 243 0 244 143 6 c197 9 304 41 393
119 163 144 150 459 -25 569 -95 61 -151 71 -418 77 l-243 4 0 -631z m505 470
c104 -46 154 -133 142 -249 -17 -163 -132 -231 -389 -232 l-108 0 0 256 0 256
153 -4 c130 -4 159 -8 202 -27z"/>
<path d="M6363 3670 c-91 -19 -175 -87 -214 -175 -32 -72 -44 -183 -31 -272
22 -138 78 -225 178 -274 42 -21 63 -24 154 -24 95 0 111 3 162 28 67 33 111
80 147 157 24 51 26 65 26 190 0 118 -3 141 -22 182 -72 156 -216 224 -400
188z m188 -85 c96 -34 140 -113 147 -261 6 -136 -13 -201 -76 -265 -39 -38
-57 -49 -105 -59 -124 -25 -225 19 -278 121 -31 60 -39 229 -15 313 21 70 72
129 129 150 55 19 144 20 198 1z"/>
<path d="M3507 3663 c-4 -3 -7 -170 -7 -370 l0 -363 45 0 45 0 0 370 0 370
-38 0 c-21 0 -42 -3 -45 -7z"/>
<path d="M4010 3300 l0 -370 41 0 42 0 -5 305 c-3 169 -3 303 0 300 3 -3 47
-68 96 -145 50 -77 138 -212 195 -300 l104 -160 48 0 49 0 0 371 0 370 -37 -3
-38 -3 0 -303 c0 -166 -1 -302 -3 -302 -1 0 -44 64 -96 143 -51 78 -141 215
-199 305 l-106 162 -46 0 -45 0 0 -370z"/>
<path d="M5000 3300 l0 -370 40 0 40 0 0 323 1 322 122 -320 123 -320 38 0 37
0 122 315 122 315 3 -317 2 -318 44 0 44 0 -3 358 c-2 196 -4 363 -4 370 -1 8
-20 12 -61 12 -73 0 -42 62 -257 -500 -20 -52 -39 -98 -43 -102 -3 -5 -58 128
-121 295 l-116 302 -66 3 -67 3 0 -371z"/>
<path d="M7170 3301 l0 -371 163 0 c89 0 178 5 198 10 94 26 149 97 149 193 0
32 -7 71 -15 86 -20 41 -70 79 -110 87 -35 6 -39 24 -5 24 10 0 33 12 51 27
61 52 75 133 38 211 -18 37 -32 49 -78 70 -51 24 -70 26 -223 30 l-168 5 0
-372z m323 278 c91 -25 105 -168 20 -209 -16 -8 -74 -15 -140 -18 l-113 -4 0
121 0 121 98 0 c53 0 114 -5 135 -11z m29 -322 c62 -26 86 -105 54 -181 -22
-52 -70 -70 -203 -74 l-113 -4 0 142 0 143 113 -5 c70 -3 126 -11 149 -21z"/>
<path d="M8060 3300 l0 -370 40 0 40 0 0 370 0 370 -40 0 -40 0 0 -370z"/>
<path d="M8560 3300 l0 -370 210 0 210 0 0 24 c0 56 1 56 -171 56 l-159 0 0
330 0 330 -45 0 -45 0 0 -370z"/>
<path d="M9310 3300 l0 -370 45 0 45 0 0 370 0 370 -45 0 -45 0 0 -370z"/>
<path d="M10007 3663 c-3 -4 -30 -71 -60 -148 -30 -77 -94 -238 -141 -358 -47
-120 -86 -220 -86 -222 0 -3 19 -5 43 -5 l42 0 44 115 44 116 150 -3 150 -3
45 -112 44 -113 45 0 c39 0 44 2 38 18 -4 9 -24 60 -45 112 -20 52 -65 167
-100 255 -35 88 -80 203 -99 255 -37 94 -37 95 -73 98 -20 2 -38 -1 -41 -5z
m104 -281 c27 -73 49 -135 49 -137 0 -3 -52 -5 -115 -5 -63 0 -115 4 -115 8 0
4 25 73 55 154 30 80 55 152 56 160 0 7 5 0 11 -17 5 -16 32 -90 59 -163z"/>
<path d="M10690 3301 l0 -371 40 0 40 0 0 149 0 149 58 4 c99 5 92 11 188
-153 l88 -149 48 0 c26 0 48 2 48 4 0 3 -43 76 -95 163 -83 137 -93 159 -79
168 99 61 124 100 124 194 0 99 -32 152 -115 187 -29 12 -80 18 -192 22 l-153
5 0 -372z m279 283 c18 -4 45 -20 62 -36 26 -26 29 -36 29 -92 0 -110 -49
-146 -200 -146 l-90 0 0 140 0 140 84 0 c46 0 98 -3 115 -6z"/>
<path d="M11540 3301 l0 -371 45 0 45 0 -2 368 -3 367 -42 3 -43 3 0 -370z"/>
<path d="M12197 3578 c-20 -51 -85 -218 -145 -371 l-110 -278 45 3 45 3 43
110 42 110 150 3 150 3 42 -106 c22 -58 41 -110 41 -115 0 -6 20 -10 45 -10
25 0 45 4 45 9 0 5 -43 118 -96 252 -52 134 -116 297 -141 362 l-46 117 -37 0
-37 0 -36 -92z m104 -101 c15 -40 41 -109 58 -154 l30 -83 -119 0 -119 0 26
68 c14 37 40 108 57 158 17 50 33 90 36 87 2 -2 16 -36 31 -76z"/>
<path d="M6768 1603 c684 -2 1800 -2 2480 0 680 1 121 2 -1243 2 -1364 0
-1921 -1 -1237 -2z"/>
</g>
</svg>